<svg xmlns="http://www.w3.org/2000/svg" viewBox="0 0 64 64">
  <circle cx="32" cy="32" r="30" fill="#1e3a5f"/>
  <g transform="translate(16,12) scale(0.5)">
    <path d="M32 8 C28 8 24 12 24 16 L24 28 C24 30 22 32 20 32 L16 32 C14 32 12 34 12 36 L12 56 C12 58 14 60 16 60 L48 60 C50 60 52 58 52 56 L52 36 C52 34 50 32 48 32 L44 32 C42 32 40 30 40 28 L40 16 C40 12 36 8 32 8Z" fill="#f97316" stroke="white" stroke-width="2"/>
    <circle cx="32" cy="44" r="6" fill="white"/>
    <path d="M26 20 L38 20" stroke="white" stroke-width="3" stroke-linecap="round"/>
  </g>
  <path d="M44 10 C44 10 48 6 50 8 C52 10 48 14 48 14" stroke="#25d366" stroke-width="2.5" fill="none" stroke-linecap="round"/>
  <path d="M48 6 C48 6 52 2 54 4 C56 6 52 10 52 10" stroke="#25d366" stroke-width="2" fill="none" stroke-linecap="round" opacity="0.7"/>
</svg>
